<svg xmlns="http://www.w3.org/2000/svg" width="14" height="12" viewBox="0 0 14 12"><g><g><path fill="#666" d="M14.001 1.533c-.524.24-1.08.397-1.649.467A2.964 2.964 0 0 0 13.616.358c-.564.345-1.18.59-1.825.72a2.823 2.823 0 0 0-2.1-.935 2.861 2.861 0 0 0-2.039.877 2.974 2.974 0 0 0-.834 2.09c0 .229.025.455.076.678A8.063 8.063 0 0 1 .974.686C.21 2.041.597 3.766 1.863 4.65A2.788 2.788 0 0 1 .56 4.277v.038c-.006 1.406.958 2.622 2.305 2.91a2.79 2.79 0 0 1-1.296.052 2.892 2.892 0 0 0 2.683 2.061 5.65 5.65 0 0 1-3.566 1.27.895.895 0 0 1-.686-.04 7.924 7.924 0 0 0 4.4 1.335c2.187 0 4.281-.894 5.818-2.48a8.425 8.425 0 0 0 2.355-5.965c0-.129 0-.257-.008-.384a5.96 5.96 0 0 0 1.436-1.541z"/></g></g></svg>