<svg xmlns="http://www.w3.org/2000/svg" width="21" height="17" viewBox="0 0 21 17"><g><g><path fill="#00a2f9" d="M17.984 2.685A4.3 4.3 0 0 0 19.854.31c-.834.5-1.748.851-2.7 1.042A4.232 4.232 0 0 0 14.043 0a4.286 4.286 0 0 0-3.02 1.268A4.236 4.236 0 0 0 9.792 4.29c0 .33.033.658.107.979A12.041 12.041 0 0 1 1.132.786a4.318 4.318 0 0 0 1.317 5.727 4.2 4.2 0 0 1-1.927-.536v.055a4.285 4.285 0 0 0 3.415 4.207 4.243 4.243 0 0 1-1.921.074 4.268 4.268 0 0 0 3.974 2.98 8.495 8.495 0 0 1-5.283 1.836 1.35 1.35 0 0 1-1.015-.06A11.944 11.944 0 0 0 6.207 17c3.238 0 6.341-1.292 8.615-3.586a12.022 12.022 0 0 0 3.489-8.621c0-.187 0-.372-.013-.557a8.667 8.667 0 0 0 2.125-2.226 8.44 8.44 0 0 1-2.439.675z"/></g></g></svg>