<svg xmlns="http://www.w3.org/2000/svg" width="16" height="16" viewBox="0 0 16 16">
    <g>
        <g>
            <path fill="#666"
                  d="M11.013 2H4.931c-.884 0-1.66.276-2.157.774C2.276 3.272 2 4.046 2 4.931v6.082c0 .885.277 1.66.83 2.213.553.497 1.272.774 2.156.774h6.028c.885 0 1.66-.277 2.158-.774.553-.498.83-1.272.83-2.157V4.986c0-.885-.277-1.604-.775-2.156-.553-.554-1.272-.83-2.213-.83zM16 11.309c0 1.382-.482 2.586-1.33 3.428-.844.842-2.05 1.263-3.378 1.263H4.71c-1.329 0-2.536-.421-3.381-1.263-.906-.842-1.33-2.046-1.33-3.428V4.692C0 1.925 1.872 0 4.71 0h6.642c1.388 0 2.536.481 3.38 1.323.847.842 1.27 1.985 1.27 3.369zM8 10a2 2 0 1 0 0-4 2 2 0 0 0 0 4zm-.03 2C5.752 12 4 10.176 4 8c0-2.236 1.811-4 3.97-4C10.13 4 12 5.764 12 8c0 2.235-1.81 4-4.03 4zM12 5c-.562 0-1-.438-1-1 0-.563.438-1 1-1 .564 0 1 .437 1 1 0 .562-.436 1-1 1z"/>
        </g>
    </g>
</svg>