<svg xmlns="http://www.w3.org/2000/svg" width="38" height="28" viewBox="0 0 38 28"><defs><clipPath id="ksypa"><path fill="#fff" d="M9 0h25a4.001 4.001 0 0 1 4 4v20a4 4 0 0 1-4 4H9a4 4 0 0 1-4.001-4v-6.715l-5-4.285 5-4.285V4a4 4 0 0 1 4-4z"/></clipPath></defs><g><g><path fill="none" stroke="#f5f5f5" stroke-miterlimit="50" stroke-width="4" d="M9 0h25a4.001 4.001 0 0 1 4 4v20a4 4 0 0 1-4 4H9a4 4 0 0 1-4.001-4v-6.715l-5-4.285 5-4.285V4a4 4 0 0 1 4-4z" clip-path="url(&quot;#ksypa&quot;)"/></g></g></svg>